<?xml version="1.0" encoding="UTF-8"?>
<svg width="512" height="512" version="1.1" viewBox="0 0 512 512" xmlns="http://www.w3.org/2000/svg">
 <g transform="matrix(3.0118 0 0 3.0118 -76.8 -76.8)" fill="#ffffff">
  <path d="m89.6 25.6c-35.346 0-64 28.654-64 64s28.654 64 64 64 64-28.654 64-64-28.654-64-64-64zm0 4c33.137 0 60 26.863 60 60s-26.863 60-60 60-60-26.863-60-60 26.863-60 60-60z"/>
  <g transform="translate(-38.4,-38.4)">
   <path d="m128 89.6c-5.376 0-9.6 3.424-9.6 7.68v20.48h19.2v-20.48c0-4.256-4.224-7.68-9.6-7.68z"/>
   <path d="m137.6 117.76h-19.2v12.8c0 4.256 4.224 7.68 9.6 7.68s9.6-3.424 9.6-7.68z"/>
   <path d="m137.6 89.6h-19.2v28.16h19.2z"/>
  </g>
  <path d="m51.2 51.2h19.2v76.8h-19.2z"/>
  <path d="m147.2 89.6h-19.2v38.4h19.2z"/>
 </g>
</svg>